<svg width="14" height="15" viewBox="0 0 14 15" fill="none" xmlns="http://www.w3.org/2000/svg">
<g id="ant-design:copyright-circle-twotone">
<path id="Vector" d="M7 1.35205C3.61758 1.35205 0.875 4.09463 0.875 7.47705C0.875 10.8595 3.61758 13.6021 7 13.6021C10.3824 13.6021 13.125 10.8595 13.125 7.47705C13.125 4.09463 10.3824 1.35205 7 1.35205ZM7 12.563C4.1918 12.563 1.91406 10.2853 1.91406 7.47705C1.91406 4.66885 4.1918 2.39111 7 2.39111C9.8082 2.39111 12.0859 4.66885 12.0859 7.47705C12.0859 10.2853 9.8082 12.563 7 12.563Z" fill="#0905C6"/>
<path id="Vector_2" d="M6.78125 2.22705C4.00324 2.22705 1.75 4.48029 1.75 7.2583C1.75 10.0363 4.00324 12.2896 6.78125 12.2896C9.55926 12.2896 11.8125 10.0363 11.8125 7.2583C11.8125 4.48029 9.55926 2.22705 6.78125 2.22705ZM6.85564 9.4358C7.5711 9.4358 8.05664 9.00707 8.11345 8.38357C8.11886 8.32812 8.16484 8.28484 8.22165 8.28484H8.98986C9.02502 8.28484 9.05343 8.31324 9.05343 8.3484C9.05343 9.46556 8.12427 10.2608 6.85293 10.2608C5.36655 10.2608 4.50907 9.2708 4.50907 7.62482V6.91747C4.50907 5.25933 5.36655 4.25578 6.85293 4.25578C8.12833 4.25578 9.05343 5.07674 9.05343 6.24935C9.05343 6.28451 9.02502 6.31291 8.98986 6.31291H8.223C8.1662 6.31291 8.11886 6.26963 8.1148 6.21283C8.0607 5.542 7.57381 5.08485 6.85699 5.08485C5.97517 5.08485 5.4761 5.74081 5.47475 6.91747V7.62888C5.47475 8.78796 5.97246 9.4358 6.85564 9.4358Z" fill="white" fill-opacity="0.15"/>
<path id="Vector_3" d="M7.29896 5.26019C8.05807 5.26019 8.5737 5.72646 8.63099 6.41069C8.63529 6.46863 8.68542 6.51278 8.74557 6.51278H9.55768C9.59492 6.51278 9.625 6.48381 9.625 6.44794C9.625 5.25191 8.64531 4.41455 7.29466 4.41455C5.72057 4.41455 4.8125 5.43814 4.8125 7.12942V7.8509C4.8125 9.52975 5.72057 10.5396 7.29466 10.5396C8.64102 10.5396 9.625 9.7284 9.625 8.58893C9.625 8.55306 9.59492 8.5241 9.55768 8.5241H8.74414C8.68398 8.5241 8.63529 8.56824 8.62956 8.6248C8.5694 9.26075 8.05521 9.69805 7.29753 9.69805C6.36224 9.69805 5.83516 9.03727 5.83516 7.85504V7.12942C5.83659 5.92925 6.3651 5.26019 7.29896 5.26019Z" fill="#0905C6"/>
</g>
</svg>
