<svg width="22" height="23" viewBox="0 0 22 23" fill="none" xmlns="http://www.w3.org/2000/svg">
<g id="InstagramLogo">
<path id="Vector" d="M11 7.35205C10.1842 7.35205 9.38663 7.59398 8.70827 8.04724C8.02992 8.5005 7.50121 9.14474 7.189 9.89848C6.87679 10.6522 6.7951 11.4816 6.95426 12.2818C7.11343 13.082 7.50629 13.817 8.08318 14.3939C8.66008 14.9708 9.39508 15.3636 10.1953 15.5228C10.9954 15.682 11.8248 15.6003 12.5786 15.2881C13.3323 14.9758 13.9766 14.4471 14.4298 13.7688C14.8831 13.0904 15.125 12.2929 15.125 11.4771C15.1239 10.3834 14.6889 9.33483 13.9156 8.56149C13.1422 7.78815 12.0937 7.35319 11 7.35205ZM11 14.2271C10.4561 14.2271 9.92442 14.0658 9.47218 13.7636C9.01995 13.4614 8.66747 13.0319 8.45933 12.5294C8.25119 12.0269 8.19673 11.474 8.30284 10.9406C8.40895 10.4071 8.67086 9.9171 9.05546 9.53251C9.44005 9.14791 9.93005 8.886 10.4635 8.77989C10.9969 8.67378 11.5499 8.72824 12.0524 8.93638C12.5549 9.14452 12.9844 9.497 13.2865 9.94923C13.5887 10.4015 13.75 10.9332 13.75 11.4771C13.75 12.2064 13.4603 12.9059 12.9445 13.4216C12.4288 13.9373 11.7293 14.2271 11 14.2271ZM15.125 2.53955H6.875C5.59906 2.54092 4.37578 3.04838 3.47356 3.95061C2.57133 4.85283 2.06386 6.07612 2.0625 7.35205V15.6021C2.06386 16.878 2.57133 18.1013 3.47356 19.0035C4.37578 19.9057 5.59906 20.4132 6.875 20.4146H15.125C16.4009 20.4132 17.6242 19.9057 18.5264 19.0035C19.4287 18.1013 19.9361 16.878 19.9375 15.6021V7.35205C19.9361 6.07612 19.4287 4.85283 18.5264 3.95061C17.6242 3.04838 16.4009 2.54092 15.125 2.53955ZM18.5625 15.6021C18.5625 16.5137 18.2003 17.3881 17.5557 18.0327C16.911 18.6774 16.0367 19.0396 15.125 19.0396H6.875C5.96332 19.0396 5.08898 18.6774 4.44432 18.0327C3.79966 17.3881 3.4375 16.5137 3.4375 15.6021V7.35205C3.4375 6.44037 3.79966 5.56603 4.44432 4.92137C5.08898 4.27671 5.96332 3.91455 6.875 3.91455H15.125C16.0367 3.91455 16.911 4.27671 17.5557 4.92137C18.2003 5.56603 18.5625 6.44037 18.5625 7.35205V15.6021ZM16.5 7.0083C16.5 7.21226 16.4395 7.41164 16.3262 7.58123C16.2129 7.75082 16.0518 7.883 15.8634 7.96105C15.675 8.0391 15.4676 8.05953 15.2676 8.01974C15.0675 7.97994 14.8838 7.88173 14.7395 7.7375C14.5953 7.59328 14.4971 7.40953 14.4573 7.20949C14.4175 7.00945 14.4379 6.80209 14.516 6.61366C14.5941 6.42522 14.7262 6.26416 14.8958 6.15085C15.0654 6.03753 15.2648 5.97705 15.4688 5.97705C15.7423 5.97705 16.0046 6.0857 16.198 6.2791C16.3913 6.47249 16.5 6.7348 16.5 7.0083Z" fill="#0905C6"/>
</g>
</svg>
