<svg width="22" height="23" viewBox="0 0 22 23" fill="none" xmlns="http://www.w3.org/2000/svg">
<g id="LinkedinLogo">
<path id="Vector" d="M18.5625 2.53955H3.4375C3.07283 2.53955 2.72309 2.68442 2.46523 2.94228C2.20737 3.20014 2.0625 3.54988 2.0625 3.91455V19.0396C2.0625 19.4042 2.20737 19.754 2.46523 20.0118C2.72309 20.2697 3.07283 20.4146 3.4375 20.4146H18.5625C18.9272 20.4146 19.2769 20.2697 19.5348 20.0118C19.7926 19.754 19.9375 19.4042 19.9375 19.0396V3.91455C19.9375 3.54988 19.7926 3.20014 19.5348 2.94228C19.2769 2.68442 18.9272 2.53955 18.5625 2.53955ZM18.5625 19.0396H3.4375V3.91455H18.5625V19.0396ZM8.25 10.1021V15.6021C8.25 15.7844 8.17757 15.9593 8.04864 16.0882C7.9197 16.2171 7.74484 16.2896 7.5625 16.2896C7.38016 16.2896 7.2053 16.2171 7.07636 16.0882C6.94743 15.9593 6.875 15.7844 6.875 15.6021V10.1021C6.875 9.91971 6.94743 9.74485 7.07636 9.61591C7.2053 9.48698 7.38016 9.41455 7.5625 9.41455C7.74484 9.41455 7.9197 9.48698 8.04864 9.61591C8.17757 9.74485 8.25 9.91971 8.25 10.1021ZM15.8125 12.5083V15.6021C15.8125 15.7844 15.7401 15.9593 15.6111 16.0882C15.4822 16.2171 15.3073 16.2896 15.125 16.2896C14.9427 16.2896 14.7678 16.2171 14.6389 16.0882C14.5099 15.9593 14.4375 15.7844 14.4375 15.6021V12.5083C14.4375 12.0525 14.2564 11.6153 13.9341 11.293C13.6118 10.9706 13.1746 10.7896 12.7188 10.7896C12.2629 10.7896 11.8257 10.9706 11.5034 11.293C11.1811 11.6153 11 12.0525 11 12.5083V15.6021C11 15.7844 10.9276 15.9593 10.7986 16.0882C10.6697 16.2171 10.4948 16.2896 10.3125 16.2896C10.1302 16.2896 9.9553 16.2171 9.82636 16.0882C9.69743 15.9593 9.625 15.7844 9.625 15.6021V10.1021C9.62585 9.93365 9.68848 9.77142 9.80101 9.64614C9.91354 9.52085 10.0681 9.44122 10.2355 9.42236C10.4028 9.4035 10.5713 9.44671 10.7089 9.5438C10.8465 9.64089 10.9436 9.7851 10.982 9.94908C11.447 9.63358 11.9893 9.45073 12.5504 9.42015C13.1116 9.38958 13.6705 9.51244 14.1671 9.77554C14.6637 10.0386 15.0793 10.432 15.3692 10.9135C15.659 11.395 15.8123 11.9463 15.8125 12.5083ZM8.59375 7.6958C8.59375 7.89976 8.53327 8.09914 8.41995 8.26873C8.30664 8.43832 8.14558 8.5705 7.95714 8.64855C7.76871 8.7266 7.56136 8.74703 7.36131 8.70724C7.16127 8.66744 6.97752 8.56923 6.8333 8.425C6.68907 8.28078 6.59086 8.09703 6.55106 7.89699C6.51127 7.69695 6.5317 7.48959 6.60975 7.30116C6.6878 7.11272 6.81998 6.95166 6.98957 6.83835C7.15916 6.72503 7.35854 6.66455 7.5625 6.66455C7.836 6.66455 8.09831 6.7732 8.2917 6.9666C8.4851 7.15999 8.59375 7.4223 8.59375 7.6958Z" fill="#0905C6"/>
</g>
</svg>
