<svg width="201" height="30" viewBox="0 0 201 30" fill="none" xmlns="http://www.w3.org/2000/svg">
<g id="Vector">
<path d="M0 28.9813L9.74442 12.109L19.4872 28.9841L0 28.9813Z" fill="#0905C6"/>
<path d="M27.8137 0.479878L8.32647 0.477051L18.0693 17.3521L27.8137 0.479878Z" fill="#0905C6"/>
<path d="M47.0864 23.7305C52.1744 23.7305 55.6784 20.1545 55.6784 14.9945C55.6784 9.76253 52.1024 6.18653 46.9184 6.18653H40.7744V23.7305H47.0864ZM46.6304 9.01853C50.2544 9.01853 52.4384 11.2745 52.4384 14.9945C52.4384 18.6425 50.3024 20.8985 46.7984 20.8985H43.8464V9.01853H46.6304Z" fill="#0905C6"/>
<path d="M59.572 9.49853C60.532 9.49853 61.324 8.70653 61.324 7.72253C61.324 6.73853 60.532 5.97053 59.572 5.97053C58.564 5.97053 57.772 6.73853 57.772 7.72253C57.772 8.70653 58.564 9.49853 59.572 9.49853ZM58.108 23.7305H61.036V11.8745H58.108V23.7305Z" fill="#0905C6"/>
<path d="M63.3892 17.5385C63.3892 20.9705 65.5972 23.4905 68.9572 23.4905C70.6612 23.4905 72.1252 22.7945 72.8692 21.6905V23.6585C72.8692 25.6265 71.5732 26.8985 69.5572 26.8985C67.7572 26.8985 66.5812 25.9865 66.3892 24.4505H63.4612C63.8212 27.6185 66.1492 29.5625 69.5572 29.5625C73.3972 29.5625 75.7732 27.0905 75.7732 23.1305V11.8745H73.0612L72.8932 13.5065C72.1972 12.2345 70.8052 11.4905 69.0292 11.4905C65.6452 11.4905 63.3892 14.0825 63.3892 17.5385ZM66.3412 17.4665C66.3412 15.5225 67.5892 14.0585 69.5332 14.0585C71.5732 14.0585 72.7972 15.4505 72.7972 17.4665C72.7972 19.5305 71.5492 20.9465 69.5332 20.9465C67.6132 20.9465 66.3412 19.4585 66.3412 17.4665Z" fill="#0905C6"/>
<path d="M80.2674 9.49853C81.2274 9.49853 82.0194 8.70653 82.0194 7.72253C82.0194 6.73853 81.2274 5.97053 80.2674 5.97053C79.2594 5.97053 78.4674 6.73853 78.4674 7.72253C78.4674 8.70653 79.2594 9.49853 80.2674 9.49853ZM78.8034 23.7305H81.7314V11.8745H78.8034V23.7305Z" fill="#0905C6"/>
<path d="M88.7885 23.7305V14.3225H91.0925V11.8745H88.7885V8.17853H85.8605V11.8745H83.5805V14.3225H85.8605V23.7305H88.7885Z" fill="#0905C6"/>
<path d="M96.3704 24.0425C98.2184 24.0425 99.8264 23.2025 100.33 21.9785L100.546 23.7305H103.114V16.5305C103.114 13.2425 101.146 11.5145 97.9544 11.5145C94.7384 11.5145 92.6264 13.1945 92.6264 15.7625H95.1224C95.1224 14.5145 96.0824 13.7945 97.8104 13.7945C99.2984 13.7945 100.258 14.4425 100.258 16.0505V16.3145L96.7064 16.5785C93.8984 16.7945 92.3144 18.1625 92.3144 20.3465C92.3144 22.5785 93.8504 24.0425 96.3704 24.0425ZM97.3304 21.8345C96.0104 21.8345 95.2904 21.3065 95.2904 20.2265C95.2904 19.2665 95.9864 18.6665 97.8104 18.4985L100.282 18.3065V18.9305C100.282 20.7545 99.1304 21.8345 97.3304 21.8345Z" fill="#0905C6"/>
<path d="M108.943 23.7305V5.87453H106.039V23.7305H108.943Z" fill="#0905C6"/>
<path d="M120.427 23.7305L121.843 19.6745H128.395L129.811 23.7305H133.051L126.715 6.18653H123.571L117.235 23.7305H120.427ZM124.747 11.4185C124.915 10.9385 125.059 10.4105 125.131 10.0745C125.179 10.4345 125.347 10.9625 125.491 11.4185L127.507 17.0825H122.755L124.747 11.4185Z" fill="#0905C6"/>
<path d="M133.819 17.5385C133.819 20.9705 136.027 23.4905 139.387 23.4905C141.091 23.4905 142.555 22.7945 143.299 21.6905V23.6585C143.299 25.6265 142.003 26.8985 139.987 26.8985C138.187 26.8985 137.011 25.9865 136.819 24.4505H133.891C134.251 27.6185 136.579 29.5625 139.987 29.5625C143.827 29.5625 146.203 27.0905 146.203 23.1305V11.8745H143.491L143.323 13.5065C142.627 12.2345 141.235 11.4905 139.459 11.4905C136.075 11.4905 133.819 14.0825 133.819 17.5385ZM136.771 17.4665C136.771 15.5225 138.019 14.0585 139.963 14.0585C142.003 14.0585 143.227 15.4505 143.227 17.4665C143.227 19.5305 141.979 20.9465 139.963 20.9465C138.043 20.9465 136.771 19.4585 136.771 17.4665Z" fill="#0905C6"/>
<path d="M154.537 24.0425C157.633 24.0425 159.793 22.4825 160.297 19.8905H157.585C157.249 21.0185 156.193 21.6425 154.585 21.6425C152.641 21.6425 151.537 20.5865 151.321 18.4985L160.249 18.4745V17.5865C160.249 13.8905 157.993 11.5145 154.441 11.5145C150.961 11.5145 148.537 14.0825 148.537 17.8025C148.537 21.4745 151.009 24.0425 154.537 24.0425ZM154.465 13.9145C156.217 13.9145 157.345 14.9945 157.345 16.6265H151.393C151.681 14.8505 152.737 13.9145 154.465 13.9145Z" fill="#0905C6"/>
<path d="M165.52 23.7305V17.3465C165.52 15.4265 166.624 14.1785 168.424 14.1785C169.936 14.1785 170.92 15.1385 170.92 17.1305V23.7305H173.848V16.4345C173.848 13.3625 172.312 11.5145 169.336 11.5145C167.728 11.5145 166.288 12.2105 165.544 13.4105L165.304 11.8745H162.592V23.7305H165.52Z" fill="#0905C6"/>
<path d="M176.029 17.7785C176.029 21.5465 178.381 24.0425 181.981 24.0425C185.077 24.0425 187.381 22.1465 187.741 19.3865H184.789C184.477 20.6825 183.445 21.4025 181.981 21.4025C180.109 21.4025 178.957 20.0105 178.957 17.7785C178.957 15.5465 180.205 14.1305 182.077 14.1305C183.469 14.1305 184.453 14.8265 184.789 16.1705H187.717C187.405 13.3145 185.197 11.5145 181.957 11.5145C178.453 11.5145 176.029 14.1065 176.029 17.7785Z" fill="#0905C6"/>
<path d="M188.654 29.2265C189.302 29.3945 190.022 29.4905 190.838 29.4905C192.782 29.4905 194.03 28.5785 194.918 26.3705L200.726 11.8745H197.702L194.486 20.5145L191.438 11.8745H188.342L193.118 24.2345L192.782 25.1225C192.278 26.5145 191.558 26.7785 190.406 26.7785H188.654V29.2265Z" fill="#0905C6"/>
</g>
</svg>
