<svg width="16" height="16" viewBox="0 0 16 16" fill="none" xmlns="http://www.w3.org/2000/svg">
<g id="Star">
<path id="Vector" d="M14.6502 6.92161L11.8334 9.29078L12.6772 12.8181C12.7218 13.0024 12.7091 13.1954 12.6405 13.3729C12.572 13.5503 12.4507 13.7044 12.2918 13.8158C12.1329 13.9271 11.9435 13.9909 11.7472 13.9991C11.5509 14.0073 11.3565 13.9595 11.1882 13.8618L7.99594 11.9958L4.81058 13.8618C4.6423 13.9595 4.44786 14.0073 4.25156 13.9991C4.05527 13.9909 3.86583 13.9271 3.70694 13.8158C3.54805 13.7044 3.42675 13.5503 3.35821 13.3729C3.28967 13.1954 3.27693 13.0024 3.32158 12.8181L4.16414 9.29439L1.34666 6.92161C1.19764 6.79774 1.08988 6.63424 1.0369 6.45159C0.983918 6.26895 0.988072 6.07529 1.04884 5.89491C1.10961 5.71453 1.22428 5.55545 1.37848 5.43763C1.53269 5.31981 1.71955 5.24849 1.91565 5.23261L5.62941 4.92262L7.07906 1.59037C7.15476 1.41552 7.28245 1.26616 7.44605 1.16111C7.60965 1.05606 7.80185 1 7.99844 1C8.19503 1 8.38723 1.05606 8.55083 1.16111C8.71443 1.26616 8.84212 1.41552 8.91782 1.59037L10.3718 4.92262L14.0844 5.23261C14.2804 5.24849 14.4673 5.31981 14.6215 5.43763C14.7757 5.55545 14.8904 5.71453 14.9512 5.89491C15.0119 6.07529 15.0161 6.26895 14.9631 6.45159C14.9101 6.63424 14.8024 6.79774 14.6533 6.92161H14.6502Z" fill="#EFEFEF"/>
</g>
</svg>
