<svg width="22" height="23" viewBox="0 0 22 23" fill="none" xmlns="http://www.w3.org/2000/svg">
<g id="TwitterLogo">
<path id="Vector" d="M21.2594 6.40193C21.2074 6.2763 21.1193 6.16891 21.0063 6.09334C20.8932 6.01777 20.7603 5.97743 20.6243 5.9774H18.0093C17.6436 5.35536 17.1233 4.83852 16.4988 4.4771C15.8743 4.11569 15.1669 3.92201 14.4454 3.9149C13.9079 3.90785 13.3744 4.00837 12.8763 4.21057C12.3782 4.41276 11.9256 4.71253 11.545 5.09224C11.1534 5.47657 10.8425 5.93533 10.6308 6.44153C10.419 6.94774 10.3105 7.49118 10.3118 8.0399V8.56326C6.85198 7.6506 4.02206 4.83615 3.99198 4.80607C3.89975 4.71302 3.78284 4.64826 3.65504 4.61942C3.52723 4.59058 3.39385 4.59886 3.27059 4.64329C3.14733 4.68772 3.03934 4.76644 2.95932 4.87018C2.8793 4.97393 2.8306 5.09838 2.81894 5.22888C2.44855 9.33584 3.64136 12.0841 4.70956 13.6662C5.23041 14.4483 5.86403 15.1491 6.58987 15.7459C5.28105 17.2524 3.22027 18.0439 3.19792 18.0525C3.10091 18.0888 3.01336 18.1466 2.94182 18.2215C2.87029 18.2964 2.8166 18.3866 2.78479 18.4852C2.75297 18.5837 2.74385 18.6882 2.75809 18.7909C2.77234 18.8935 2.80959 18.9915 2.86706 19.0777C2.93152 19.174 3.18933 19.5117 3.81925 19.8271C4.59784 20.2172 5.62652 20.4149 6.87433 20.4149C12.9475 20.4149 18.0221 15.7382 18.5403 9.72084L21.1107 7.1513C21.2069 7.0551 21.2723 6.93256 21.2987 6.79917C21.3252 6.66578 21.3115 6.52754 21.2594 6.40193ZM17.3922 8.92935C17.2743 9.04751 17.2035 9.20451 17.1928 9.37107C16.8431 14.7929 12.3125 19.0399 6.87433 19.0399C5.96683 19.0399 5.32745 18.9196 4.87886 18.7752C5.868 18.2381 7.2473 17.3143 8.13417 15.984C8.18622 15.9057 8.22169 15.8177 8.23838 15.7252C8.25507 15.6327 8.25263 15.5378 8.2312 15.4464C8.20978 15.3549 8.16984 15.2687 8.11383 15.1933C8.05782 15.1179 7.98695 15.0547 7.90558 15.0077C7.86519 14.9845 4.13206 12.7441 4.12433 6.75771C5.49933 7.8749 8.013 9.60826 10.885 10.0912C10.9835 10.1078 11.0843 10.1028 11.1806 10.0765C11.2769 10.0501 11.3663 10.0032 11.4426 9.93881C11.5189 9.87444 11.5803 9.79424 11.6225 9.70377C11.6646 9.61329 11.6866 9.51472 11.6868 9.4149V8.0399C11.6861 7.67316 11.7586 7.30997 11.9003 6.9717C12.042 6.63344 12.2499 6.32693 12.5118 6.07021C12.7629 5.81867 13.0619 5.62001 13.391 5.48599C13.7202 5.35196 14.0729 5.28528 14.4282 5.2899C15.5162 5.30365 16.5328 5.96709 16.9582 6.94076C17.0119 7.06317 17.1 7.1673 17.2119 7.24041C17.3238 7.31352 17.4545 7.35244 17.5882 7.3524H18.9632L17.3922 8.92935Z" fill="#0905C6"/>
</g>
</svg>
