<svg width="22" height="23" viewBox="0 0 22 23" fill="none" xmlns="http://www.w3.org/2000/svg">
<g id="YoutubeLogo">
<path id="Vector" d="M14.1316 10.9047L10.0066 8.15471C9.903 8.08561 9.78262 8.04594 9.65827 8.03991C9.53392 8.03389 9.41027 8.06174 9.30051 8.1205C9.19075 8.17926 9.09901 8.26672 9.03508 8.37355C8.97115 8.48038 8.93742 8.60256 8.9375 8.72705V14.2271C8.93742 14.3516 8.97115 14.4737 9.03508 14.5806C9.09901 14.6874 9.19075 14.7748 9.30051 14.8336C9.41027 14.8924 9.53392 14.9202 9.65827 14.9142C9.78262 14.9082 9.903 14.8685 10.0066 14.7994L14.1316 12.0494C14.2259 11.9866 14.3032 11.9016 14.3567 11.8017C14.4102 11.7019 14.4382 11.5903 14.4382 11.4771C14.4382 11.3638 14.4102 11.2523 14.3567 11.1524C14.3032 11.0526 14.2259 10.9675 14.1316 10.9047ZM10.3125 12.9423V10.0161L12.5108 11.4771L10.3125 12.9423ZM20.1377 6.45143C20.0568 6.13462 19.9016 5.8416 19.6851 5.59655C19.4686 5.3515 19.1969 5.16144 18.8925 5.04205C15.9466 3.90424 11.2578 3.91455 11 3.91455C10.7422 3.91455 6.05344 3.90424 3.1075 5.04205C2.80308 5.16144 2.5314 5.3515 2.31489 5.59655C2.09838 5.8416 1.94324 6.13462 1.86227 6.45143C1.63969 7.30908 1.375 8.87659 1.375 11.4771C1.375 14.0775 1.63969 15.645 1.86227 16.5027C1.94312 16.8196 2.09821 17.1128 2.31472 17.358C2.53124 17.6033 2.80298 17.7934 3.1075 17.9129C5.92969 19.0017 10.3469 19.0396 10.9433 19.0396H11.0567C11.6531 19.0396 16.0729 19.0017 18.8925 17.9129C19.197 17.7934 19.4688 17.6033 19.6853 17.358C19.9018 17.1128 20.0569 16.8196 20.1377 16.5027C20.3603 15.6433 20.625 14.0775 20.625 11.4771C20.625 8.87659 20.3603 7.30908 20.1377 6.45143ZM18.8066 16.1624C18.7804 16.2678 18.7296 16.3655 18.6583 16.4475C18.5871 16.5295 18.4974 16.5935 18.3966 16.6342C15.6767 17.6843 11.0507 17.6654 11.006 17.6654H11C10.9536 17.6654 6.33102 17.6826 3.60938 16.6342C3.50863 16.5935 3.41896 16.5295 3.3477 16.4475C3.27645 16.3655 3.22564 16.2678 3.19945 16.1624C2.99062 15.3778 2.75 13.9323 2.75 11.4771C2.75 9.02182 2.99063 7.57635 3.19344 6.79604C3.21914 6.68998 3.26973 6.59155 3.34101 6.50892C3.41229 6.42628 3.50222 6.3618 3.60336 6.3208C6.22617 5.3076 10.621 5.28955 10.9811 5.28955H11.0043C11.0507 5.28955 15.6776 5.27409 18.3949 6.3208C18.4957 6.36146 18.5853 6.42542 18.6566 6.50743C18.7278 6.58944 18.7787 6.68717 18.8048 6.7926C19.0094 7.57635 19.25 9.02182 19.25 11.4771C19.25 13.9323 19.0094 15.3778 18.8066 16.1581V16.1624Z" fill="#0905C6"/>
</g>
</svg>
